<mxfile host="Electron" agent="Mozilla/5.0 (Windows NT 10.0; Win64; x64) AppleWebKit/537.36 (KHTML, like Gecko) draw.io/24.7.17 Chrome/128.0.6613.36 Electron/32.0.1 Safari/537.36" version="24.7.17">
  <diagram name="Страница — 1" id="99YaJUb4C0xopBN1OPOV">
    <mxGraphModel dx="1434" dy="2013" grid="1" gridSize="10" guides="1" tooltips="1" connect="1" arrows="1" fold="1" page="1" pageScale="1" pageWidth="1654" pageHeight="1169" math="0" shadow="0">
      <root>
        <mxCell id="0" />
        <mxCell id="1" parent="0" />
        <mxCell id="FahfC4dtS4dkY3FdAEgg-21" style="edgeStyle=orthogonalEdgeStyle;rounded=0;orthogonalLoop=1;jettySize=auto;html=1;" parent="1" source="FahfC4dtS4dkY3FdAEgg-1" target="FahfC4dtS4dkY3FdAEgg-2" edge="1">
          <mxGeometry relative="1" as="geometry" />
        </mxCell>
        <object placeholders="1" c4Name="Клиент" c4Type="Person" c4Description="Клиент" label="&lt;font style=&quot;font-size: 16px&quot;&gt;&lt;b&gt;%c4Name%&lt;/b&gt;&lt;/font&gt;&lt;div&gt;[%c4Type%]&lt;/div&gt;&lt;br&gt;&lt;div&gt;&lt;font style=&quot;font-size: 11px&quot;&gt;&lt;font color=&quot;#cccccc&quot;&gt;%c4Description%&lt;/font&gt;&lt;/div&gt;" id="FahfC4dtS4dkY3FdAEgg-1">
          <mxCell style="html=1;fontSize=11;dashed=0;whiteSpace=wrap;fillColor=#083F75;strokeColor=#06315C;fontColor=#ffffff;shape=mxgraph.c4.person2;align=center;metaEdit=1;points=[[0.5,0,0],[1,0.5,0],[1,0.75,0],[0.75,1,0],[0.5,1,0],[0.25,1,0],[0,0.75,0],[0,0.5,0]];resizable=0;" parent="1" vertex="1">
            <mxGeometry x="549" y="-170" width="200" height="180" as="geometry" />
          </mxCell>
        </object>
        <mxCell id="FahfC4dtS4dkY3FdAEgg-29" style="edgeStyle=orthogonalEdgeStyle;rounded=0;orthogonalLoop=1;jettySize=auto;html=1;" parent="1" source="FahfC4dtS4dkY3FdAEgg-2" target="FahfC4dtS4dkY3FdAEgg-6" edge="1">
          <mxGeometry relative="1" as="geometry" />
        </mxCell>
        <mxCell id="FahfC4dtS4dkY3FdAEgg-43" value="1,Получение тарифов&lt;div&gt;2,Создание заявок на страховки&lt;/div&gt;&lt;div&gt;[REST]&lt;/div&gt;" style="edgeLabel;html=1;align=center;verticalAlign=middle;resizable=0;points=[];" parent="FahfC4dtS4dkY3FdAEgg-29" vertex="1" connectable="0">
          <mxGeometry x="-0.28" y="-2" relative="1" as="geometry">
            <mxPoint as="offset" />
          </mxGeometry>
        </mxCell>
        <mxCell id="FahfC4dtS4dkY3FdAEgg-35" style="edgeStyle=orthogonalEdgeStyle;rounded=0;orthogonalLoop=1;jettySize=auto;html=1;" parent="1" source="FahfC4dtS4dkY3FdAEgg-2" target="FahfC4dtS4dkY3FdAEgg-5" edge="1">
          <mxGeometry relative="1" as="geometry" />
        </mxCell>
        <mxCell id="FahfC4dtS4dkY3FdAEgg-42" value="Получение/сохранение&lt;div&gt;информации о клиентах&lt;/div&gt;&lt;div&gt;[REST]&lt;/div&gt;" style="edgeLabel;html=1;align=center;verticalAlign=middle;resizable=0;points=[];" parent="FahfC4dtS4dkY3FdAEgg-35" vertex="1" connectable="0">
          <mxGeometry x="-0.0822" y="1" relative="1" as="geometry">
            <mxPoint as="offset" />
          </mxGeometry>
        </mxCell>
        <object placeholders="1" c4Name="InsureTech Web" c4Type="Container" c4Technology="JavaScript, React" c4Description="Веб-приложение InsureTech Web" label="&lt;font style=&quot;font-size: 16px&quot;&gt;&lt;b&gt;%c4Name%&lt;/b&gt;&lt;/font&gt;&lt;div&gt;[%c4Type%:&amp;nbsp;%c4Technology%]&lt;/div&gt;&lt;br&gt;&lt;div&gt;&lt;font style=&quot;font-size: 11px&quot;&gt;&lt;font color=&quot;#E6E6E6&quot;&gt;%c4Description%&lt;/font&gt;&lt;/div&gt;" id="FahfC4dtS4dkY3FdAEgg-2">
          <mxCell style="shape=mxgraph.c4.webBrowserContainer2;whiteSpace=wrap;html=1;boundedLbl=1;rounded=0;labelBackgroundColor=none;strokeColor=#118ACD;fillColor=#23A2D9;strokeColor=#118ACD;strokeColor2=#0E7DAD;fontSize=12;fontColor=#ffffff;align=center;metaEdit=1;points=[[0.5,0,0],[1,0.25,0],[1,0.5,0],[1,0.75,0],[0.5,1,0],[0,0.75,0],[0,0.5,0],[0,0.25,0]];resizable=0;" parent="1" vertex="1">
            <mxGeometry x="529" y="115" width="240" height="160" as="geometry" />
          </mxCell>
        </object>
        <object placeholders="1" c4Name="InsureTech Prod" c4Type="ContainerScopeBoundary" c4Application="Виртуальная машина" label="&lt;font style=&quot;font-size: 16px&quot;&gt;&lt;b&gt;&lt;div style=&quot;text-align: left&quot;&gt;%c4Name%&lt;/div&gt;&lt;/b&gt;&lt;/font&gt;&lt;div style=&quot;text-align: left&quot;&gt;[%c4Application%]&lt;/div&gt;" id="FahfC4dtS4dkY3FdAEgg-3">
          <mxCell style="rounded=1;fontSize=11;whiteSpace=wrap;html=1;dashed=1;arcSize=20;fillColor=none;strokeColor=#666666;fontColor=#333333;labelBackgroundColor=none;align=left;verticalAlign=bottom;labelBorderColor=none;spacingTop=0;spacing=10;dashPattern=8 4;metaEdit=1;rotatable=0;perimeter=rectanglePerimeter;noLabel=0;labelPadding=0;allowArrows=0;connectable=0;expand=0;recursiveResize=0;editable=1;pointerEvents=0;absoluteArcSize=1;points=[[0.25,0,0],[0.5,0,0],[0.75,0,0],[1,0.25,0],[1,0.5,0],[1,0.75,0],[0.75,1,0],[0.5,1,0],[0.25,1,0],[0,0.75,0],[0,0.5,0],[0,0.25,0]];" parent="1" vertex="1">
            <mxGeometry x="470" y="50" width="1180" height="1110" as="geometry" />
          </mxCell>
        </object>
        <object placeholders="1" c4Name="core-db" c4Type="Container" c4Technology="PosthgreSQL" c4Description="Бд используется для хранения тарифов страховых комапний, а также заявок клиентов на страховые продукты" label="&lt;font style=&quot;font-size: 16px&quot;&gt;&lt;b&gt;%c4Name%&lt;/b&gt;&lt;/font&gt;&lt;div&gt;[%c4Type%:&amp;nbsp;%c4Technology%]&lt;/div&gt;&lt;br&gt;&lt;div&gt;&lt;font style=&quot;font-size: 11px&quot;&gt;&lt;font color=&quot;#E6E6E6&quot;&gt;%c4Description%&lt;/font&gt;&lt;/div&gt;" id="FahfC4dtS4dkY3FdAEgg-4">
          <mxCell style="shape=cylinder3;size=15;whiteSpace=wrap;html=1;boundedLbl=1;rounded=0;labelBackgroundColor=none;fillColor=#23A2D9;fontSize=12;fontColor=#ffffff;align=center;strokeColor=#0E7DAD;metaEdit=1;points=[[0.5,0,0],[1,0.25,0],[1,0.5,0],[1,0.75,0],[0.5,1,0],[0,0.75,0],[0,0.5,0],[0,0.25,0]];resizable=0;" parent="1" vertex="1">
            <mxGeometry x="529" y="820" width="240" height="120" as="geometry" />
          </mxCell>
        </object>
        <mxCell id="FahfC4dtS4dkY3FdAEgg-37" style="edgeStyle=orthogonalEdgeStyle;rounded=0;orthogonalLoop=1;jettySize=auto;html=1;" parent="1" source="FahfC4dtS4dkY3FdAEgg-5" target="FahfC4dtS4dkY3FdAEgg-7" edge="1">
          <mxGeometry relative="1" as="geometry" />
        </mxCell>
        <mxCell id="FahfC4dtS4dkY3FdAEgg-45" value="Работа с данными&lt;div&gt;[]TCP&lt;/div&gt;" style="edgeLabel;html=1;align=center;verticalAlign=middle;resizable=0;points=[];" parent="FahfC4dtS4dkY3FdAEgg-37" vertex="1" connectable="0">
          <mxGeometry x="-0.0194" y="-3" relative="1" as="geometry">
            <mxPoint as="offset" />
          </mxGeometry>
        </mxCell>
        <object placeholders="1" c4Name="Client Info" c4Type="Container" c4Technology="kotlin, SpringBoot" c4Description="Сервис для учета клиентских данных" label="&lt;font style=&quot;font-size: 16px&quot;&gt;&lt;b&gt;%c4Name%&lt;/b&gt;&lt;/font&gt;&lt;div&gt;[%c4Type%: %c4Technology%]&lt;/div&gt;&lt;br&gt;&lt;div&gt;&lt;font style=&quot;font-size: 11px&quot;&gt;&lt;font color=&quot;#E6E6E6&quot;&gt;%c4Description%&lt;/font&gt;&lt;/div&gt;" id="FahfC4dtS4dkY3FdAEgg-5">
          <mxCell style="rounded=1;whiteSpace=wrap;html=1;fontSize=11;labelBackgroundColor=none;fillColor=#23A2D9;fontColor=#ffffff;align=center;arcSize=10;strokeColor=#0E7DAD;metaEdit=1;resizable=0;points=[[0.25,0,0],[0.5,0,0],[0.75,0,0],[1,0.25,0],[1,0.5,0],[1,0.75,0],[0.75,1,0],[0.5,1,0],[0.25,1,0],[0,0.75,0],[0,0.5,0],[0,0.25,0]];" parent="1" vertex="1">
            <mxGeometry x="915" y="135" width="240" height="120" as="geometry" />
          </mxCell>
        </object>
        <mxCell id="FahfC4dtS4dkY3FdAEgg-30" style="edgeStyle=orthogonalEdgeStyle;rounded=0;orthogonalLoop=1;jettySize=auto;html=1;" parent="1" source="FahfC4dtS4dkY3FdAEgg-6" target="FahfC4dtS4dkY3FdAEgg-4" edge="1">
          <mxGeometry relative="1" as="geometry" />
        </mxCell>
        <mxCell id="FahfC4dtS4dkY3FdAEgg-44" value="работа с данными&lt;div&gt;[TCP]&lt;/div&gt;" style="edgeLabel;html=1;align=center;verticalAlign=middle;resizable=0;points=[];" parent="FahfC4dtS4dkY3FdAEgg-30" vertex="1" connectable="0">
          <mxGeometry x="-0.0714" y="3" relative="1" as="geometry">
            <mxPoint x="-3" y="78" as="offset" />
          </mxGeometry>
        </mxCell>
        <object placeholders="1" c4Name="Ins Comp Settlement DB" c4Type="Container" c4Technology="PostrgreSQL" c4Description="БД используется для хранения данных клиентов: ФИО, телефон, паспорт и др. информация необходимая для оформления страховок" label="&lt;font style=&quot;font-size: 16px&quot;&gt;&lt;b&gt;%c4Name%&lt;/b&gt;&lt;/font&gt;&lt;div&gt;[%c4Type%:&amp;nbsp;%c4Technology%]&lt;/div&gt;&lt;br&gt;&lt;div&gt;&lt;font style=&quot;font-size: 11px&quot;&gt;&lt;font color=&quot;#E6E6E6&quot;&gt;%c4Description%&lt;/font&gt;&lt;/div&gt;" id="FahfC4dtS4dkY3FdAEgg-7">
          <mxCell style="shape=cylinder3;size=15;whiteSpace=wrap;html=1;boundedLbl=1;rounded=0;labelBackgroundColor=none;fillColor=#23A2D9;fontSize=12;fontColor=#ffffff;align=center;strokeColor=#0E7DAD;metaEdit=1;points=[[0.5,0,0],[1,0.25,0],[1,0.5,0],[1,0.75,0],[0.5,1,0],[0,0.75,0],[0,0.5,0],[0,0.25,0]];resizable=0;" parent="1" vertex="1">
            <mxGeometry x="1310" y="135" width="240" height="120" as="geometry" />
          </mxCell>
        </object>
        <mxCell id="FtUbRL534gFq1MeY8Pyp-4" style="edgeStyle=orthogonalEdgeStyle;rounded=0;orthogonalLoop=1;jettySize=auto;html=1;" parent="1" source="FahfC4dtS4dkY3FdAEgg-8" target="FtUbRL534gFq1MeY8Pyp-1" edge="1">
          <mxGeometry relative="1" as="geometry">
            <Array as="points">
              <mxPoint x="1060" y="520" />
            </Array>
          </mxGeometry>
        </mxCell>
        <mxCell id="FtUbRL534gFq1MeY8Pyp-6" value="Публикация информации&amp;nbsp;&lt;div&gt;по продуктам и тарифам&lt;/div&gt;&lt;div&gt;[KAFKA PUB]&lt;/div&gt;" style="edgeLabel;html=1;align=center;verticalAlign=middle;resizable=0;points=[];" parent="FtUbRL534gFq1MeY8Pyp-4" vertex="1" connectable="0">
          <mxGeometry x="-0.1888" relative="1" as="geometry">
            <mxPoint x="9" y="-10" as="offset" />
          </mxGeometry>
        </mxCell>
        <object placeholders="1" c4Name="Ins Product Aggregator" c4Type="Container" c4Technology="Kotlin, Spring Boot" c4Description="Сервис для интеграции со страховыми компаниями с целью получения информации по страховым продуктам. Предоставляет единый API для core" label="&lt;font style=&quot;font-size: 16px&quot;&gt;&lt;b&gt;%c4Name%&lt;/b&gt;&lt;/font&gt;&lt;div&gt;[%c4Type%: %c4Technology%]&lt;/div&gt;&lt;br&gt;&lt;div&gt;&lt;font style=&quot;font-size: 11px&quot;&gt;&lt;font color=&quot;#E6E6E6&quot;&gt;%c4Description%&lt;/font&gt;&lt;/div&gt;" id="FahfC4dtS4dkY3FdAEgg-8">
          <mxCell style="rounded=1;whiteSpace=wrap;html=1;fontSize=11;labelBackgroundColor=none;fillColor=#23A2D9;fontColor=#ffffff;align=center;arcSize=10;strokeColor=#0E7DAD;metaEdit=1;resizable=0;points=[[0.25,0,0],[0.5,0,0],[0.75,0,0],[1,0.25,0],[1,0.5,0],[1,0.75,0],[0.75,1,0],[0.5,1,0],[0.25,1,0],[0,0.75,0],[0,0.5,0],[0,0.25,0]];" parent="1" vertex="1">
            <mxGeometry x="1220" y="475" width="240" height="120" as="geometry" />
          </mxCell>
        </object>
        <mxCell id="FahfC4dtS4dkY3FdAEgg-33" style="edgeStyle=orthogonalEdgeStyle;rounded=0;orthogonalLoop=1;jettySize=auto;html=1;" parent="1" source="FahfC4dtS4dkY3FdAEgg-9" target="FahfC4dtS4dkY3FdAEgg-19" edge="1">
          <mxGeometry relative="1" as="geometry" />
        </mxCell>
        <mxCell id="FahfC4dtS4dkY3FdAEgg-49" value="работа с данными&lt;div&gt;[TCP]&lt;/div&gt;" style="edgeLabel;html=1;align=center;verticalAlign=middle;resizable=0;points=[];" parent="FahfC4dtS4dkY3FdAEgg-33" vertex="1" connectable="0">
          <mxGeometry y="1" relative="1" as="geometry">
            <mxPoint as="offset" />
          </mxGeometry>
        </mxCell>
        <object placeholders="1" c4Name="ins-comp-settlement" c4Type="Container" c4Technology="Kotlin, Spring Boot" c4Description="Сервис для осуществления взаиморасчетов со страховыми компаниями" label="&lt;font style=&quot;font-size: 16px&quot;&gt;&lt;b&gt;%c4Name%&lt;/b&gt;&lt;/font&gt;&lt;div&gt;[%c4Type%: %c4Technology%]&lt;/div&gt;&lt;br&gt;&lt;div&gt;&lt;font style=&quot;font-size: 11px&quot;&gt;&lt;font color=&quot;#E6E6E6&quot;&gt;%c4Description%&lt;/font&gt;&lt;/div&gt;" id="FahfC4dtS4dkY3FdAEgg-9">
          <mxCell style="rounded=1;whiteSpace=wrap;html=1;fontSize=11;labelBackgroundColor=none;fillColor=#23A2D9;fontColor=#ffffff;align=center;arcSize=10;strokeColor=#0E7DAD;metaEdit=1;resizable=0;points=[[0.25,0,0],[0.5,0,0],[0.75,0,0],[1,0.25,0],[1,0.5,0],[1,0.75,0],[0.75,1,0],[0.5,1,0],[0.25,1,0],[0,0.75,0],[0,0.5,0],[0,0.25,0]];" parent="1" vertex="1">
            <mxGeometry x="1250" y="760" width="240" height="120" as="geometry" />
          </mxCell>
        </object>
        <object placeholders="1" c4Name="Платежный сервис" c4Type="Software System" c4Description="Внешний платежный сервис, через который осуществляется оплата страховок. Деньги уходят на счета страховых компаний" label="&lt;font style=&quot;font-size: 16px&quot;&gt;&lt;b&gt;%c4Name%&lt;/b&gt;&lt;/font&gt;&lt;div&gt;[%c4Type%]&lt;/div&gt;&lt;br&gt;&lt;div&gt;&lt;font style=&quot;font-size: 11px&quot;&gt;&lt;font color=&quot;#cccccc&quot;&gt;%c4Description%&lt;/font&gt;&lt;/div&gt;" id="FahfC4dtS4dkY3FdAEgg-11">
          <mxCell style="rounded=1;whiteSpace=wrap;html=1;labelBackgroundColor=none;fillColor=#8C8496;fontColor=#ffffff;align=center;arcSize=10;strokeColor=#736782;metaEdit=1;resizable=0;points=[[0.25,0,0],[0.5,0,0],[0.75,0,0],[1,0.25,0],[1,0.5,0],[1,0.75,0],[0.75,1,0],[0.5,1,0],[0.25,1,0],[0,0.75,0],[0,0.5,0],[0,0.25,0]];" parent="1" vertex="1">
            <mxGeometry x="40" y="373" width="240" height="120" as="geometry" />
          </mxCell>
        </object>
        <object placeholders="1" c4Name="" c4Type="" c4Description="" label="&lt;font style=&quot;font-size: 16px&quot;&gt;&lt;b&gt;%c4Name%&lt;/b&gt;&lt;/font&gt;&lt;div&gt;[%c4Type%]&lt;/div&gt;&lt;br&gt;&lt;div&gt;&lt;font style=&quot;font-size: 11px&quot;&gt;&lt;font color=&quot;#cccccc&quot;&gt;%c4Description%&lt;/font&gt;&lt;/div&gt;" id="FahfC4dtS4dkY3FdAEgg-12">
          <mxCell style="rounded=1;whiteSpace=wrap;html=1;labelBackgroundColor=none;fillColor=#8C8496;fontColor=#ffffff;align=center;arcSize=10;strokeColor=#736782;metaEdit=1;resizable=0;points=[[0.25,0,0],[0.5,0,0],[0.75,0,0],[1,0.25,0],[1,0.5,0],[1,0.75,0],[0.75,1,0],[0.5,1,0],[0.25,1,0],[0,0.75,0],[0,0.5,0],[0,0.25,0]];" parent="1" vertex="1">
            <mxGeometry x="20" y="585" width="240" height="120" as="geometry" />
          </mxCell>
        </object>
        <object placeholders="1" c4Name="" c4Type="" c4Description="" label="&lt;font style=&quot;font-size: 16px&quot;&gt;&lt;b&gt;%c4Name%&lt;/b&gt;&lt;/font&gt;&lt;div&gt;[%c4Type%]&lt;/div&gt;&lt;br&gt;&lt;div&gt;&lt;font style=&quot;font-size: 11px&quot;&gt;&lt;font color=&quot;#cccccc&quot;&gt;%c4Description%&lt;/font&gt;&lt;/div&gt;" id="FahfC4dtS4dkY3FdAEgg-13">
          <mxCell style="rounded=1;whiteSpace=wrap;html=1;labelBackgroundColor=none;fillColor=#8C8496;fontColor=#ffffff;align=center;arcSize=10;strokeColor=#736782;metaEdit=1;resizable=0;points=[[0.25,0,0],[0.5,0,0],[0.75,0,0],[1,0.25,0],[1,0.5,0],[1,0.75,0],[0.75,1,0],[0.5,1,0],[0.25,1,0],[0,0.75,0],[0,0.5,0],[0,0.25,0]];" parent="1" vertex="1">
            <mxGeometry x="30" y="595" width="240" height="120" as="geometry" />
          </mxCell>
        </object>
        <object placeholders="1" c4Name="Системы партнеров" c4Type="Software System" c4Description="Системы партнеров. интегрирующие страховые услуги в свои продукты" label="&lt;font style=&quot;font-size: 16px&quot;&gt;&lt;b&gt;%c4Name%&lt;/b&gt;&lt;/font&gt;&lt;div&gt;[%c4Type%]&lt;/div&gt;&lt;br&gt;&lt;div&gt;&lt;font style=&quot;font-size: 11px&quot;&gt;&lt;font color=&quot;#cccccc&quot;&gt;%c4Description%&lt;/font&gt;&lt;/div&gt;" id="FahfC4dtS4dkY3FdAEgg-14">
          <mxCell style="rounded=1;whiteSpace=wrap;html=1;labelBackgroundColor=none;fillColor=#8C8496;fontColor=#ffffff;align=center;arcSize=10;strokeColor=#736782;metaEdit=1;resizable=0;points=[[0.25,0,0],[0.5,0,0],[0.75,0,0],[1,0.25,0],[1,0.5,0],[1,0.75,0],[0.75,1,0],[0.5,1,0],[0.25,1,0],[0,0.75,0],[0,0.5,0],[0,0.25,0]];" parent="1" vertex="1">
            <mxGeometry x="40" y="605" width="240" height="120" as="geometry" />
          </mxCell>
        </object>
        <object placeholders="1" c4Name="" c4Type="" c4Description="" label="&lt;font style=&quot;font-size: 16px&quot;&gt;&lt;b&gt;%c4Name%&lt;/b&gt;&lt;/font&gt;&lt;div&gt;[%c4Type%]&lt;/div&gt;&lt;br&gt;&lt;div&gt;&lt;font style=&quot;font-size: 11px&quot;&gt;&lt;font color=&quot;#cccccc&quot;&gt;%c4Description%&lt;/font&gt;&lt;/div&gt;" id="FahfC4dtS4dkY3FdAEgg-15">
          <mxCell style="rounded=1;whiteSpace=wrap;html=1;labelBackgroundColor=none;fillColor=#8C8496;fontColor=#ffffff;align=center;arcSize=10;strokeColor=#736782;metaEdit=1;resizable=0;points=[[0.25,0,0],[0.5,0,0],[0.75,0,0],[1,0.25,0],[1,0.5,0],[1,0.75,0],[0.75,1,0],[0.5,1,0],[0.25,1,0],[0,0.75,0],[0,0.5,0],[0,0.25,0]];" parent="1" vertex="1">
            <mxGeometry x="1690" y="575" width="240" height="120" as="geometry" />
          </mxCell>
        </object>
        <object placeholders="1" c4Name="" c4Type="" c4Description="" label="&lt;font style=&quot;font-size: 16px&quot;&gt;&lt;b&gt;%c4Name%&lt;/b&gt;&lt;/font&gt;&lt;div&gt;[%c4Type%]&lt;/div&gt;&lt;br&gt;&lt;div&gt;&lt;font style=&quot;font-size: 11px&quot;&gt;&lt;font color=&quot;#cccccc&quot;&gt;%c4Description%&lt;/font&gt;&lt;/div&gt;" id="FahfC4dtS4dkY3FdAEgg-16">
          <mxCell style="rounded=1;whiteSpace=wrap;html=1;labelBackgroundColor=none;fillColor=#8C8496;fontColor=#ffffff;align=center;arcSize=10;strokeColor=#736782;metaEdit=1;resizable=0;points=[[0.25,0,0],[0.5,0,0],[0.75,0,0],[1,0.25,0],[1,0.5,0],[1,0.75,0],[0.75,1,0],[0.5,1,0],[0.25,1,0],[0,0.75,0],[0,0.5,0],[0,0.25,0]];" parent="1" vertex="1">
            <mxGeometry x="1700" y="585" width="240" height="120" as="geometry" />
          </mxCell>
        </object>
        <object placeholders="1" c4Name="Системы страховых компаний" c4Type="Software System" c4Description="Системы страховых компаний, представляющих API для получения актальных тарифов, андерайтинга и оформления страховых продуктов" label="&lt;font style=&quot;font-size: 16px&quot;&gt;&lt;b&gt;%c4Name%&lt;/b&gt;&lt;/font&gt;&lt;div&gt;[%c4Type%]&lt;/div&gt;&lt;br&gt;&lt;div&gt;&lt;font style=&quot;font-size: 11px&quot;&gt;&lt;font color=&quot;#cccccc&quot;&gt;%c4Description%&lt;/font&gt;&lt;/div&gt;" id="FahfC4dtS4dkY3FdAEgg-18">
          <mxCell style="rounded=1;whiteSpace=wrap;html=1;labelBackgroundColor=none;fillColor=#8C8496;fontColor=#ffffff;align=center;arcSize=10;strokeColor=#736782;metaEdit=1;resizable=0;points=[[0.25,0,0],[0.5,0,0],[0.75,0,0],[1,0.25,0],[1,0.5,0],[1,0.75,0],[0.75,1,0],[0.5,1,0],[0.25,1,0],[0,0.75,0],[0,0.5,0],[0,0.25,0]];" parent="1" vertex="1">
            <mxGeometry x="1710" y="595" width="240" height="120" as="geometry" />
          </mxCell>
        </object>
        <object placeholders="1" c4Name="Ins Comp Settlement DB" c4Type="Container" c4Technology="PostrgreSQL" c4Description="БД используется для хранения данных об оформленных страховках и условиях взаиморасчетов с клиентами" label="&lt;font style=&quot;font-size: 16px&quot;&gt;&lt;b&gt;%c4Name%&lt;/b&gt;&lt;/font&gt;&lt;div&gt;[%c4Type%:&amp;nbsp;%c4Technology%]&lt;/div&gt;&lt;br&gt;&lt;div&gt;&lt;font style=&quot;font-size: 11px&quot;&gt;&lt;font color=&quot;#E6E6E6&quot;&gt;%c4Description%&lt;/font&gt;&lt;/div&gt;" id="FahfC4dtS4dkY3FdAEgg-19">
          <mxCell style="shape=cylinder3;size=15;whiteSpace=wrap;html=1;boundedLbl=1;rounded=0;labelBackgroundColor=none;fillColor=#23A2D9;fontSize=12;fontColor=#ffffff;align=center;strokeColor=#0E7DAD;metaEdit=1;points=[[0.5,0,0],[1,0.25,0],[1,0.5,0],[1,0.75,0],[0.5,1,0],[0,0.75,0],[0,0.5,0],[0,0.25,0]];resizable=0;" parent="1" vertex="1">
            <mxGeometry x="1250" y="1000" width="240" height="120" as="geometry" />
          </mxCell>
        </object>
        <mxCell id="FahfC4dtS4dkY3FdAEgg-22" style="edgeStyle=orthogonalEdgeStyle;rounded=0;orthogonalLoop=1;jettySize=auto;html=1;entryX=0.475;entryY=0.008;entryDx=0;entryDy=0;entryPerimeter=0;" parent="1" source="FahfC4dtS4dkY3FdAEgg-2" target="FahfC4dtS4dkY3FdAEgg-11" edge="1">
          <mxGeometry relative="1" as="geometry">
            <mxPoint x="160" y="268" as="targetPoint" />
          </mxGeometry>
        </mxCell>
        <mxCell id="FahfC4dtS4dkY3FdAEgg-23" value="Проведение оплаты&lt;div&gt;за страховки(readrect)&lt;/div&gt;&lt;div&gt;[HTTP]&lt;/div&gt;" style="edgeLabel;html=1;align=center;verticalAlign=middle;resizable=0;points=[];" parent="FahfC4dtS4dkY3FdAEgg-22" vertex="1" connectable="0">
          <mxGeometry x="-0.0543" y="-3" relative="1" as="geometry">
            <mxPoint as="offset" />
          </mxGeometry>
        </mxCell>
        <mxCell id="FahfC4dtS4dkY3FdAEgg-24" style="edgeStyle=orthogonalEdgeStyle;rounded=0;orthogonalLoop=1;jettySize=auto;html=1;entryX=1;entryY=0.5;entryDx=0;entryDy=0;entryPerimeter=0;" parent="1" source="FahfC4dtS4dkY3FdAEgg-6" target="FahfC4dtS4dkY3FdAEgg-11" edge="1">
          <mxGeometry relative="1" as="geometry">
            <Array as="points">
              <mxPoint x="440" y="500" />
              <mxPoint x="440" y="433" />
            </Array>
          </mxGeometry>
        </mxCell>
        <mxCell id="FahfC4dtS4dkY3FdAEgg-26" value="Проведение оплаты&lt;div&gt;за страховки&lt;/div&gt;&lt;div&gt;[HTTP]&lt;/div&gt;" style="edgeLabel;html=1;align=center;verticalAlign=middle;resizable=0;points=[];" parent="FahfC4dtS4dkY3FdAEgg-24" vertex="1" connectable="0">
          <mxGeometry x="0.5127" y="2" relative="1" as="geometry">
            <mxPoint y="-105" as="offset" />
          </mxGeometry>
        </mxCell>
        <mxCell id="FahfC4dtS4dkY3FdAEgg-25" style="edgeStyle=orthogonalEdgeStyle;rounded=0;orthogonalLoop=1;jettySize=auto;html=1;entryX=0;entryY=0.75;entryDx=0;entryDy=0;entryPerimeter=0;" parent="1" target="FahfC4dtS4dkY3FdAEgg-6" edge="1">
          <mxGeometry relative="1" as="geometry">
            <mxPoint x="280" y="736" as="sourcePoint" />
            <mxPoint x="540" y="571" as="targetPoint" />
            <Array as="points">
              <mxPoint x="280" y="670" />
              <mxPoint x="440" y="670" />
              <mxPoint x="440" y="571" />
            </Array>
          </mxGeometry>
        </mxCell>
        <mxCell id="FahfC4dtS4dkY3FdAEgg-27" value="оформление страховок&amp;nbsp;&lt;div&gt;[REST]&lt;/div&gt;" style="edgeLabel;html=1;align=center;verticalAlign=middle;resizable=0;points=[];" parent="FahfC4dtS4dkY3FdAEgg-25" vertex="1" connectable="0">
          <mxGeometry x="0.6957" y="-1" relative="1" as="geometry">
            <mxPoint x="-105" y="159" as="offset" />
          </mxGeometry>
        </mxCell>
        <mxCell id="FahfC4dtS4dkY3FdAEgg-36" style="edgeStyle=orthogonalEdgeStyle;rounded=0;orthogonalLoop=1;jettySize=auto;html=1;entryX=0;entryY=0.75;entryDx=0;entryDy=0;entryPerimeter=0;" parent="1" source="FahfC4dtS4dkY3FdAEgg-6" target="FahfC4dtS4dkY3FdAEgg-5" edge="1">
          <mxGeometry relative="1" as="geometry">
            <Array as="points">
              <mxPoint x="680" y="420" />
              <mxPoint x="820" y="420" />
              <mxPoint x="820" y="225" />
            </Array>
          </mxGeometry>
        </mxCell>
        <mxCell id="FahfC4dtS4dkY3FdAEgg-46" value="Получение/сохранение&amp;nbsp;&lt;div&gt;информации о клиентах&lt;div&gt;&amp;nbsp;[REST]&lt;/div&gt;&lt;/div&gt;" style="edgeLabel;html=1;align=center;verticalAlign=middle;resizable=0;points=[];" parent="FahfC4dtS4dkY3FdAEgg-36" vertex="1" connectable="0">
          <mxGeometry x="-0.0696" y="1" relative="1" as="geometry">
            <mxPoint x="1" y="-82" as="offset" />
          </mxGeometry>
        </mxCell>
        <mxCell id="FahfC4dtS4dkY3FdAEgg-39" style="edgeStyle=orthogonalEdgeStyle;rounded=0;orthogonalLoop=1;jettySize=auto;html=1;entryX=0;entryY=0.75;entryDx=0;entryDy=0;entryPerimeter=0;" parent="1" source="FahfC4dtS4dkY3FdAEgg-9" target="FahfC4dtS4dkY3FdAEgg-18" edge="1">
          <mxGeometry relative="1" as="geometry" />
        </mxCell>
        <mxCell id="FahfC4dtS4dkY3FdAEgg-52" value="Передача данных для взаиморасчетов&lt;br&gt;&lt;div&gt;[REST, SOAP,GraphQL]&lt;/div&gt;" style="edgeLabel;html=1;align=center;verticalAlign=middle;resizable=0;points=[];" parent="FahfC4dtS4dkY3FdAEgg-39" vertex="1" connectable="0">
          <mxGeometry x="-0.4651" relative="1" as="geometry">
            <mxPoint as="offset" />
          </mxGeometry>
        </mxCell>
        <mxCell id="FahfC4dtS4dkY3FdAEgg-41" style="edgeStyle=orthogonalEdgeStyle;rounded=0;orthogonalLoop=1;jettySize=auto;html=1;entryX=0;entryY=0.25;entryDx=0;entryDy=0;entryPerimeter=0;" parent="1" source="FahfC4dtS4dkY3FdAEgg-8" target="FahfC4dtS4dkY3FdAEgg-18" edge="1">
          <mxGeometry relative="1" as="geometry" />
        </mxCell>
        <mxCell id="FahfC4dtS4dkY3FdAEgg-51" value="Получение информации&amp;nbsp;&lt;div&gt;по продуктам и тарифам&lt;/div&gt;&lt;div&gt;[REST, SOAP,GraphQL]&lt;/div&gt;" style="edgeLabel;html=1;align=center;verticalAlign=middle;resizable=0;points=[];" parent="FahfC4dtS4dkY3FdAEgg-41" vertex="1" connectable="0">
          <mxGeometry x="-0.6048" y="-1" relative="1" as="geometry">
            <mxPoint as="offset" />
          </mxGeometry>
        </mxCell>
        <mxCell id="FtUbRL534gFq1MeY8Pyp-2" style="edgeStyle=orthogonalEdgeStyle;rounded=0;orthogonalLoop=1;jettySize=auto;html=1;entryX=0.5;entryY=0;entryDx=0;entryDy=0;entryPerimeter=0;exitX=0.494;exitY=0.144;exitDx=0;exitDy=0;exitPerimeter=0;" parent="1" source="FtUbRL534gFq1MeY8Pyp-1" target="FahfC4dtS4dkY3FdAEgg-9" edge="1">
          <mxGeometry relative="1" as="geometry">
            <mxPoint x="1100" y="680" as="sourcePoint" />
            <Array as="points">
              <mxPoint x="1370" y="709" />
            </Array>
          </mxGeometry>
        </mxCell>
        <mxCell id="FtUbRL534gFq1MeY8Pyp-7" value="Подписка на обновление информации&lt;div&gt;по продуктам и тарифам&lt;/div&gt;&lt;div&gt;[KAFKA SUB]&lt;/div&gt;" style="edgeLabel;html=1;align=center;verticalAlign=middle;resizable=0;points=[];" parent="FtUbRL534gFq1MeY8Pyp-2" vertex="1" connectable="0">
          <mxGeometry x="0.4093" relative="1" as="geometry">
            <mxPoint x="-42" y="-25" as="offset" />
          </mxGeometry>
        </mxCell>
        <mxCell id="FtUbRL534gFq1MeY8Pyp-3" style="edgeStyle=orthogonalEdgeStyle;rounded=0;orthogonalLoop=1;jettySize=auto;html=1;entryX=0.75;entryY=1;entryDx=0;entryDy=0;entryPerimeter=0;" parent="1" source="FtUbRL534gFq1MeY8Pyp-1" target="FahfC4dtS4dkY3FdAEgg-6" edge="1">
          <mxGeometry relative="1" as="geometry" />
        </mxCell>
        <mxCell id="FtUbRL534gFq1MeY8Pyp-8" value="Подписка на обновление&amp;nbsp;&lt;div&gt;информации&lt;div&gt;по продуктам и тарифам&lt;/div&gt;&lt;div&gt;[KAFKA SUB]&lt;/div&gt;&lt;/div&gt;" style="edgeLabel;html=1;align=center;verticalAlign=middle;resizable=0;points=[];" parent="FtUbRL534gFq1MeY8Pyp-3" vertex="1" connectable="0">
          <mxGeometry x="0.5054" y="-3" relative="1" as="geometry">
            <mxPoint x="18" y="18" as="offset" />
          </mxGeometry>
        </mxCell>
        <mxCell id="FtUbRL534gFq1MeY8Pyp-11" style="edgeStyle=orthogonalEdgeStyle;rounded=0;orthogonalLoop=1;jettySize=auto;html=1;" parent="1" source="FtUbRL534gFq1MeY8Pyp-1" target="FahfC4dtS4dkY3FdAEgg-9" edge="1">
          <mxGeometry relative="1" as="geometry">
            <Array as="points">
              <mxPoint x="970" y="810" />
              <mxPoint x="1135" y="810" />
              <mxPoint x="1135" y="830" />
            </Array>
          </mxGeometry>
        </mxCell>
        <mxCell id="FtUbRL534gFq1MeY8Pyp-12" value="Подписка на обновление информации&amp;nbsp;&lt;div&gt;об оформленных страховках&lt;/div&gt;&lt;div&gt;[KAFKA SUB]&lt;/div&gt;" style="edgeLabel;html=1;align=center;verticalAlign=middle;resizable=0;points=[];" parent="FtUbRL534gFq1MeY8Pyp-11" vertex="1" connectable="0">
          <mxGeometry x="-0.2389" relative="1" as="geometry">
            <mxPoint as="offset" />
          </mxGeometry>
        </mxCell>
        <mxCell id="vbKBa3V_Bdo1LjxZomzs-1" style="edgeStyle=orthogonalEdgeStyle;rounded=0;orthogonalLoop=1;jettySize=auto;html=1;fillColor=#0050ef;strokeColor=#001DBC;dashed=1;exitX=0.008;exitY=0.533;exitDx=0;exitDy=0;exitPerimeter=0;" parent="1" source="FtUbRL534gFq1MeY8Pyp-1" edge="1">
          <mxGeometry relative="1" as="geometry">
            <mxPoint x="960" y="430" as="targetPoint" />
          </mxGeometry>
        </mxCell>
        <mxCell id="vbKBa3V_Bdo1LjxZomzs-2" value="Подписка на событие&amp;nbsp;&amp;nbsp;&lt;br&gt;&lt;div&gt;&lt;span style=&quot;color: rgba(0, 0, 0, 0.85); font-family: &amp;quot;YS Text&amp;quot;, Arial, Helvetica, sans-serif; text-align: left; white-space: pre-line;&quot;&gt;получить предложение по заявке&lt;/span&gt;&amp;nbsp;ОСАГО[KAFKA SUB]&lt;/div&gt;" style="edgeLabel;html=1;align=center;verticalAlign=middle;resizable=0;points=[];" parent="vbKBa3V_Bdo1LjxZomzs-1" vertex="1" connectable="0">
          <mxGeometry x="0.5731" y="3" relative="1" as="geometry">
            <mxPoint as="offset" />
          </mxGeometry>
        </mxCell>
        <object placeholders="1" c4Name="Kafka cluster" c4Type="Container" c4Technology="Apache Kafka" c4Description="Event-Streaming" label="&lt;font style=&quot;font-size: 16px&quot;&gt;&lt;b&gt;%c4Name%&lt;/b&gt;&lt;/font&gt;&lt;div&gt;[%c4Type%:&amp;nbsp;%c4Technology%]&lt;/div&gt;&lt;br&gt;&lt;div&gt;&lt;font style=&quot;font-size: 11px&quot;&gt;&lt;font color=&quot;#E6E6E6&quot;&gt;%c4Description%&lt;/font&gt;&lt;/div&gt;" id="FtUbRL534gFq1MeY8Pyp-1">
          <mxCell style="shape=cylinder3;size=15;direction=south;whiteSpace=wrap;html=1;boundedLbl=1;rounded=0;labelBackgroundColor=none;fillColor=#23A2D9;fontSize=12;fontColor=#ffffff;align=center;strokeColor=#0E7DAD;metaEdit=1;points=[[0.5,0,0],[1,0.25,0],[1,0.5,0],[1,0.75,0],[0.5,1,0],[0,0.75,0],[0,0.5,0],[0,0.25,0]];resizable=0;" parent="1" vertex="1">
            <mxGeometry x="850" y="650" width="240" height="120" as="geometry" />
          </mxCell>
        </object>
        <object placeholders="1" c4Name="osago-aggregator" c4Type="Container" c4Technology="Kotlin, Spring Boot" c4Description="сервис для взаимодействия со страховыми компаниями по осаго" label="&lt;font style=&quot;font-size: 16px&quot;&gt;&lt;b&gt;%c4Name%&lt;/b&gt;&lt;/font&gt;&lt;div&gt;[%c4Type%: %c4Technology%]&lt;/div&gt;&lt;br&gt;&lt;div&gt;&lt;font style=&quot;font-size: 11px&quot;&gt;&lt;font color=&quot;#E6E6E6&quot;&gt;%c4Description%&lt;/font&gt;&lt;/div&gt;" id="Lsc4GegrR4LqVGxJR4SF-1">
          <mxCell style="rounded=1;whiteSpace=wrap;html=1;fontSize=11;labelBackgroundColor=none;fillColor=#23A2D9;fontColor=#ffffff;align=center;arcSize=10;strokeColor=#0E7DAD;metaEdit=1;resizable=0;points=[[0.25,0,0],[0.5,0,0],[0.75,0,0],[1,0.25,0],[1,0.5,0],[1,0.75,0],[0.75,1,0],[0.5,1,0],[0.25,1,0],[0,0.75,0],[0,0.5,0],[0,0.25,0]];" parent="1" vertex="1">
            <mxGeometry x="915" y="310" width="240" height="120" as="geometry" />
          </mxCell>
        </object>
        <object placeholders="1" c4Name="osago-db" c4Type="Container" c4Technology="PostgreSQL" c4Description="Хранение состояния заявок, Буферизация результатов" label="&lt;font style=&quot;font-size: 16px&quot;&gt;&lt;b&gt;%c4Name%&lt;/b&gt;&lt;/font&gt;&lt;div&gt;[%c4Type%:&amp;nbsp;%c4Technology%]&lt;/div&gt;&lt;br&gt;&lt;div&gt;&lt;font style=&quot;font-size: 11px&quot;&gt;&lt;font color=&quot;#E6E6E6&quot;&gt;%c4Description%&lt;/font&gt;&lt;/div&gt;" id="Lsc4GegrR4LqVGxJR4SF-2">
          <mxCell style="shape=cylinder3;size=15;whiteSpace=wrap;html=1;boundedLbl=1;rounded=0;labelBackgroundColor=none;fillColor=#23A2D9;fontSize=12;fontColor=#ffffff;align=center;strokeColor=#0E7DAD;metaEdit=1;points=[[0.5,0,0],[1,0.25,0],[1,0.5,0],[1,0.75,0],[0.5,1,0],[0,0.75,0],[0,0.5,0],[0,0.25,0]];resizable=0;" parent="1" vertex="1">
            <mxGeometry x="1300" y="310" width="240" height="120" as="geometry" />
          </mxCell>
        </object>
        <mxCell id="Lsc4GegrR4LqVGxJR4SF-4" style="edgeStyle=orthogonalEdgeStyle;rounded=0;orthogonalLoop=1;jettySize=auto;html=1;exitX=0.997;exitY=0.42;exitDx=0;exitDy=0;exitPerimeter=0;entryX=0.003;entryY=0.428;entryDx=0;entryDy=0;entryPerimeter=0;" parent="1" source="Lsc4GegrR4LqVGxJR4SF-1" target="Lsc4GegrR4LqVGxJR4SF-2" edge="1">
          <mxGeometry relative="1" as="geometry">
            <mxPoint x="1165" y="205" as="sourcePoint" />
            <mxPoint x="1310" y="360" as="targetPoint" />
          </mxGeometry>
        </mxCell>
        <mxCell id="Lsc4GegrR4LqVGxJR4SF-5" value="Работа с данными&lt;div&gt;[]TCP&lt;/div&gt;" style="edgeLabel;html=1;align=center;verticalAlign=middle;resizable=0;points=[];" parent="Lsc4GegrR4LqVGxJR4SF-4" vertex="1" connectable="0">
          <mxGeometry x="-0.0194" y="-3" relative="1" as="geometry">
            <mxPoint as="offset" />
          </mxGeometry>
        </mxCell>
        <mxCell id="Lsc4GegrR4LqVGxJR4SF-6" style="edgeStyle=orthogonalEdgeStyle;rounded=0;orthogonalLoop=1;jettySize=auto;html=1;entryX=1;entryY=0.75;entryDx=0;entryDy=0;entryPerimeter=0;dashed=1;fillColor=#0050ef;strokeColor=#001DBC;exitX=0.629;exitY=0.967;exitDx=0;exitDy=0;exitPerimeter=0;" parent="1" source="FahfC4dtS4dkY3FdAEgg-6" target="FtUbRL534gFq1MeY8Pyp-1" edge="1">
          <mxGeometry relative="1" as="geometry">
            <Array as="points">
              <mxPoint x="660" y="596" />
              <mxPoint x="660" y="760" />
              <mxPoint x="790" y="760" />
              <mxPoint x="790" y="790" />
              <mxPoint x="910" y="790" />
            </Array>
          </mxGeometry>
        </mxCell>
        <mxCell id="Lsc4GegrR4LqVGxJR4SF-9" value="Публикация события&amp;nbsp;&lt;font style=&quot;font-size: 11px;&quot;&gt;&lt;span style=&quot;color: rgba(0, 0, 0, 0.85); font-family: &amp;quot;YS Text&amp;quot;, Arial, Helvetica, sans-serif; text-align: left; white-space: pre-line;&quot;&gt;получить предложение по заявке&lt;/span&gt;&amp;nbsp;&lt;/font&gt;&lt;div&gt;ОСАГО&lt;br&gt;&lt;div&gt;[KAFKA PUB]&lt;/div&gt;&lt;/div&gt;" style="edgeLabel;html=1;align=center;verticalAlign=middle;resizable=0;points=[];" parent="Lsc4GegrR4LqVGxJR4SF-6" vertex="1" connectable="0">
          <mxGeometry x="0.151" y="-1" relative="1" as="geometry">
            <mxPoint x="14" y="-1" as="offset" />
          </mxGeometry>
        </mxCell>
        <mxCell id="Lsc4GegrR4LqVGxJR4SF-7" style="edgeStyle=orthogonalEdgeStyle;rounded=0;orthogonalLoop=1;jettySize=auto;html=1;fillColor=#0050ef;strokeColor=#001DBC;dashed=1;exitX=0.5;exitY=1;exitDx=0;exitDy=0;exitPerimeter=0;" parent="1" source="Lsc4GegrR4LqVGxJR4SF-1" edge="1">
          <mxGeometry relative="1" as="geometry">
            <mxPoint x="1035" y="650" as="targetPoint" />
            <Array as="points">
              <mxPoint x="1035" y="650" />
            </Array>
          </mxGeometry>
        </mxCell>
        <mxCell id="Lsc4GegrR4LqVGxJR4SF-14" value="публикует событие&lt;div&gt;&amp;nbsp;о завершении&amp;nbsp;&lt;/div&gt;&lt;div&gt;обработки заявки&lt;/div&gt;&lt;div&gt;по ОСАГО&lt;/div&gt;&lt;div&gt;[KAFKA PUB]&lt;/div&gt;" style="edgeLabel;html=1;align=center;verticalAlign=middle;resizable=0;points=[];" parent="Lsc4GegrR4LqVGxJR4SF-7" vertex="1" connectable="0">
          <mxGeometry x="-0.0264" y="-1" relative="1" as="geometry">
            <mxPoint x="-4" y="48" as="offset" />
          </mxGeometry>
        </mxCell>
        <mxCell id="Lsc4GegrR4LqVGxJR4SF-8" style="edgeStyle=orthogonalEdgeStyle;rounded=0;orthogonalLoop=1;jettySize=auto;html=1;entryX=1;entryY=0.75;entryDx=0;entryDy=0;entryPerimeter=0;dashed=1;fillColor=#0050ef;strokeColor=#001DBC;" parent="1" source="FtUbRL534gFq1MeY8Pyp-1" target="FahfC4dtS4dkY3FdAEgg-6" edge="1">
          <mxGeometry relative="1" as="geometry">
            <Array as="points">
              <mxPoint x="810" y="670" />
              <mxPoint x="810" y="570" />
            </Array>
          </mxGeometry>
        </mxCell>
        <mxCell id="Lsc4GegrR4LqVGxJR4SF-15" value="Подписка на&amp;nbsp;&lt;div&gt;событие о&amp;nbsp;&lt;/div&gt;&lt;div&gt;завершении обработки&lt;/div&gt;&lt;div&gt;заявки по ОСАГО&lt;/div&gt;&lt;div&gt;[KAFKA SUB]&lt;/div&gt;" style="edgeLabel;html=1;align=center;verticalAlign=middle;resizable=0;points=[];" parent="Lsc4GegrR4LqVGxJR4SF-8" vertex="1" connectable="0">
          <mxGeometry x="0.0687" y="1" relative="1" as="geometry">
            <mxPoint x="11" as="offset" />
          </mxGeometry>
        </mxCell>
        <mxCell id="Lsc4GegrR4LqVGxJR4SF-10" style="edgeStyle=orthogonalEdgeStyle;rounded=0;orthogonalLoop=1;jettySize=auto;html=1;exitX=0.25;exitY=0;exitDx=0;exitDy=0;exitPerimeter=0;entryX=0.255;entryY=0.998;entryDx=0;entryDy=0;entryPerimeter=0;fillColor=#0050ef;strokeColor=#001DBC;dashed=1;" parent="1" source="FahfC4dtS4dkY3FdAEgg-6" target="FahfC4dtS4dkY3FdAEgg-2" edge="1">
          <mxGeometry relative="1" as="geometry">
            <mxPoint x="590.0800000000002" y="240.00000000000034" as="targetPoint" />
            <Array as="points">
              <mxPoint x="589" y="483" />
              <mxPoint x="590" y="483" />
              <mxPoint x="590" y="278" />
              <mxPoint x="590" y="278" />
            </Array>
            <mxPoint x="596.0799999999997" y="444.72000000000014" as="sourcePoint" />
          </mxGeometry>
        </mxCell>
        <mxCell id="Lsc4GegrR4LqVGxJR4SF-13" value="получение предложений&amp;nbsp;&lt;div&gt;от страховых компаний&amp;nbsp;&lt;/div&gt;&lt;div&gt;по ОСАГО&lt;/div&gt;&lt;div&gt;[&lt;span style=&quot;color: rgba(0, 0, 0, 0.85); font-family: &amp;quot;YS Text&amp;quot;, Arial, Helvetica, sans-serif; text-align: start; white-space: pre-wrap;&quot;&gt;WebSockets&lt;/span&gt;]&lt;/div&gt;" style="edgeLabel;html=1;align=center;verticalAlign=middle;resizable=0;points=[];" parent="Lsc4GegrR4LqVGxJR4SF-10" vertex="1" connectable="0">
          <mxGeometry x="-0.5958" y="-1" relative="1" as="geometry">
            <mxPoint x="-31" y="-17" as="offset" />
          </mxGeometry>
        </mxCell>
        <mxCell id="FtUbRL534gFq1MeY8Pyp-9" style="edgeStyle=orthogonalEdgeStyle;rounded=0;orthogonalLoop=1;jettySize=auto;html=1;entryX=0;entryY=0.75;entryDx=0;entryDy=0;entryPerimeter=0;" parent="1" source="FahfC4dtS4dkY3FdAEgg-6" target="FtUbRL534gFq1MeY8Pyp-1" edge="1">
          <mxGeometry relative="1" as="geometry">
            <mxPoint x="920" y="640" as="targetPoint" />
            <Array as="points">
              <mxPoint x="910" y="540" />
            </Array>
          </mxGeometry>
        </mxCell>
        <mxCell id="FtUbRL534gFq1MeY8Pyp-10" value="Публткация информации&amp;nbsp;&lt;div&gt;об оформленных страховках&lt;/div&gt;&lt;div&gt;[RKAFKA PUB]&lt;/div&gt;" style="edgeLabel;html=1;align=center;verticalAlign=middle;resizable=0;points=[];" parent="FtUbRL534gFq1MeY8Pyp-9" vertex="1" connectable="0">
          <mxGeometry x="-0.4675" relative="1" as="geometry">
            <mxPoint x="29" as="offset" />
          </mxGeometry>
        </mxCell>
        <object placeholders="1" c4Name="core-app" c4Type="Container" c4Technology="kotlin, SpringBoot" c4Description="Монолитное приложение:&#xa;- отображает данные о доступных страховых продуктах&#xa;- оформляет новые страховки&#xa;- отображает информацию о купленных страховках" label="&lt;font style=&quot;font-size: 16px&quot;&gt;&lt;b&gt;%c4Name%&lt;/b&gt;&lt;/font&gt;&lt;div&gt;[%c4Type%: %c4Technology%]&lt;/div&gt;&lt;br&gt;&lt;div&gt;&lt;font style=&quot;font-size: 11px&quot;&gt;&lt;font color=&quot;#E6E6E6&quot;&gt;%c4Description%&lt;/font&gt;&lt;/div&gt;" id="FahfC4dtS4dkY3FdAEgg-6">
          <mxCell style="rounded=1;whiteSpace=wrap;html=1;fontSize=11;labelBackgroundColor=none;fillColor=#23A2D9;fontColor=#ffffff;align=center;arcSize=10;strokeColor=#0E7DAD;metaEdit=1;resizable=0;points=[[0.25,0,0],[0.5,0,0],[0.75,0,0],[1,0.25,0],[1,0.5,0],[1,0.75,0],[0.75,1,0],[0.5,1,0],[0.25,1,0],[0,0.75,0],[0,0.5,0],[0,0.25,0]];" parent="1" vertex="1">
            <mxGeometry x="529" y="480" width="240" height="120" as="geometry" />
          </mxCell>
        </object>
        <mxCell id="--IfCforlOcOfLxx6_Ux-1" style="edgeStyle=orthogonalEdgeStyle;rounded=0;orthogonalLoop=1;jettySize=auto;html=1;exitX=0.874;exitY=0.998;exitDx=0;exitDy=0;exitPerimeter=0;" parent="1" source="Lsc4GegrR4LqVGxJR4SF-1" edge="1">
          <mxGeometry relative="1" as="geometry">
            <mxPoint x="1130" y="418.8" as="sourcePoint" />
            <mxPoint x="1765" y="600" as="targetPoint" />
            <Array as="points">
              <mxPoint x="1130" y="430" />
              <mxPoint x="1130" y="460" />
              <mxPoint x="1765" y="460" />
              <mxPoint x="1765" y="590" />
              <mxPoint x="1764" y="590" />
            </Array>
          </mxGeometry>
        </mxCell>
        <mxCell id="--IfCforlOcOfLxx6_Ux-2" value="Получение информации&amp;nbsp;&lt;div&gt;по продуктам и тарифам&lt;/div&gt;&lt;div&gt;[REST, SOAP,GraphQL]&lt;/div&gt;" style="edgeLabel;html=1;align=center;verticalAlign=middle;resizable=0;points=[];" parent="--IfCforlOcOfLxx6_Ux-1" vertex="1" connectable="0">
          <mxGeometry x="-0.6048" y="-1" relative="1" as="geometry">
            <mxPoint x="310" y="-1" as="offset" />
          </mxGeometry>
        </mxCell>
        <mxCell id="--IfCforlOcOfLxx6_Ux-19" value="" style="group" parent="1" vertex="1" connectable="0">
          <mxGeometry x="1090" y="400" width="55" height="29" as="geometry" />
        </mxCell>
        <mxCell id="--IfCforlOcOfLxx6_Ux-12" value="" style="aspect=fixed;sketch=0;html=1;dashed=0;whitespace=wrap;verticalLabelPosition=bottom;verticalAlign=top;fillColor=#2875E2;strokeColor=#ffffff;points=[[0.005,0.63,0],[0.1,0.2,0],[0.9,0.2,0],[0.5,0,0],[0.995,0.63,0],[0.72,0.99,0],[0.5,1,0],[0.28,0.99,0]];shape=mxgraph.kubernetes.icon2;prIcon=quota" parent="--IfCforlOcOfLxx6_Ux-19" vertex="1">
          <mxGeometry width="22.86036036036036" height="21.945945945945947" as="geometry" />
        </mxCell>
        <mxCell id="--IfCforlOcOfLxx6_Ux-15" value="TimeOut" style="text;html=1;align=center;verticalAlign=middle;whiteSpace=wrap;rounded=0;" parent="--IfCforlOcOfLxx6_Ux-19" vertex="1">
          <mxGeometry x="25.27027027027027" y="6.645833333333334" width="29.72972972972973" height="18.125" as="geometry" />
        </mxCell>
        <mxCell id="--IfCforlOcOfLxx6_Ux-20" value="" style="group" parent="1" vertex="1" connectable="0">
          <mxGeometry x="920" y="391" width="60" height="40" as="geometry" />
        </mxCell>
        <mxCell id="--IfCforlOcOfLxx6_Ux-13" value="" style="aspect=fixed;sketch=0;html=1;dashed=0;whitespace=wrap;verticalLabelPosition=bottom;verticalAlign=top;fillColor=#2875E2;strokeColor=#ffffff;points=[[0.005,0.63,0],[0.1,0.2,0],[0.9,0.2,0],[0.5,0,0],[0.995,0.63,0],[0.72,0.99,0],[0.5,1,0],[0.28,0.99,0]];shape=mxgraph.kubernetes.icon2;prIcon=job" parent="--IfCforlOcOfLxx6_Ux-20" vertex="1">
          <mxGeometry width="27.272727272727273" height="26.18181818181818" as="geometry" />
        </mxCell>
        <mxCell id="--IfCforlOcOfLxx6_Ux-17" value="Rate Limiter" style="text;html=1;align=center;verticalAlign=middle;whiteSpace=wrap;rounded=0;" parent="--IfCforlOcOfLxx6_Ux-20" vertex="1">
          <mxGeometry x="27.272727272727273" y="8.333333333333334" width="32.727272727272734" height="25" as="geometry" />
        </mxCell>
        <mxCell id="TiUSlS_HH32FHP5TI61y-1" style="edgeStyle=orthogonalEdgeStyle;rounded=0;orthogonalLoop=1;jettySize=auto;html=1;entryX=0;entryY=0.5;entryDx=0;entryDy=0;entryPerimeter=0;dashed=1;fillColor=#0050ef;strokeColor=#001DBC;" edge="1" parent="1" source="FahfC4dtS4dkY3FdAEgg-6" target="Lsc4GegrR4LqVGxJR4SF-1">
          <mxGeometry relative="1" as="geometry">
            <Array as="points">
              <mxPoint x="710" y="470" />
              <mxPoint x="842" y="470" />
              <mxPoint x="842" y="370" />
            </Array>
          </mxGeometry>
        </mxCell>
        <mxCell id="TiUSlS_HH32FHP5TI61y-2" value="&lt;span style=&quot;color: rgba(0, 0, 0, 0.85); font-family: &amp;quot;YS Text&amp;quot;, Arial, Helvetica, sans-serif; text-align: left; white-space: pre-line;&quot;&gt;создать заявку на ОСАГО&lt;/span&gt;&lt;div&gt;&lt;span style=&quot;color: rgba(0, 0, 0, 0.85); font-family: &amp;quot;YS Text&amp;quot;, Arial, Helvetica, sans-serif; text-align: left; white-space: pre-line;&quot;&gt;[REST]&lt;/span&gt;&lt;/div&gt;" style="edgeLabel;html=1;align=center;verticalAlign=middle;resizable=0;points=[];" vertex="1" connectable="0" parent="TiUSlS_HH32FHP5TI61y-1">
          <mxGeometry x="0.1492" y="3" relative="1" as="geometry">
            <mxPoint as="offset" />
          </mxGeometry>
        </mxCell>
      </root>
    </mxGraphModel>
  </diagram>
</mxfile>
